Coordinates
version=1
nRows=5
nColumns=46
inDegrees=yes

Units are S.I. units (second, meters, Newtons, ...)
Angles are in degrees.

endheader
time	pelvis_tilt	pelvis_list	pelvis_rotation	pelvis_tx	pelvis_ty	pelvis_tz	bb_angle	bb_tx	bb_ty	bb_tz	hip_flexion_r	hip_adduction_r	hip_rotation_r	knee_angle_r	knee_angle_r_beta	ankle_angle_r	subtalar_angle_r	mtp_angle_r	crank_angle_r	hip_flexion_l	hip_adduction_l	hip_rotation_l	knee_angle_l	knee_angle_l_beta	ankle_angle_l	subtalar_angle_l	mtp_angle_l	crank_angle_l	lumbar_extension	lumbar_bending	lumbar_rotation	arm_flex_r	arm_add_r	arm_rot_r	elbow_flex_r	pro_sup_r	wrist_flex_r	wrist_dev_r	arm_flex_l	arm_add_l	arm_rot_l	elbow_flex_l	pro_sup_l	wrist_flex_l	wrist_dev_l
      7.50500000	    -36.93331480	      5.39309748	     -0.91831332	      0.31811278	      1.03005075	     -0.17604668	      0.00000000	      0.50000000	      0.00000000	      0.25000000	     70.95080088	     -5.26432956	      3.11847758	     60.07919262	      1.04857972	     12.66927104	     -7.99910217	      0.00000000	      0.00000000	     62.39105790	     -1.59367048	      5.75773353	     76.44875039	      1.33428240	    -36.04969330	     -4.09488768	      0.00000000	      0.00000000	    -36.71529076	     -3.67474778	      3.88537256	     43.15408682	    -28.50455540	     36.44175021	     81.25113138	     52.77222503	      0.00000000	      0.00000000	     57.82377723	    -20.98365072	     46.94242311	     66.30124290	     50.37169002	      0.00000000	      0.00000000
      7.51000000	    -36.74541814	      4.54796337	      0.37310423	      0.31855784	      1.02917770	     -0.17587866	      0.00000000	      0.50000000	      0.00000000	      0.25000000	     68.56138404	     -5.59700962	      2.21279697	     57.18367940	      0.99804348	     11.58611525	     -9.27607187	      0.00000000	      0.00000000	     63.87713954	     -1.08634065	      7.18413982	     78.88773616	      1.37685074	    -36.48109849	     -4.24799327	      0.00000000	      0.00000000	    -36.62522231	     -2.30593353	      3.24653957	     42.46603719	    -27.02055962	     35.15008586	     80.78879065	     52.54603673	      0.00000000	      0.00000000	     58.12648933	    -21.42381388	     47.84410744	     65.79608388	     50.38822124	      0.00000000	      0.00000000
      7.51500000	    -36.78670589	      4.37690243	      1.31463232	      0.31895834	      1.02802272	     -0.17500972	      0.00000000	      0.50000000	      0.00000000	      0.25000000	     66.56584668	     -5.76571374	      2.28261059	     54.33978894	      0.94840823	     10.17267389	    -10.91698155	      0.00000000	      0.00000000	     65.40702731	     -0.53204554	      7.78450395	     81.10280459	      1.41551097	    -36.51128697	     -4.31011081	      0.00000000	      0.00000000	    -36.14507052	     -1.95442683	      2.49690938	     40.63307861	    -23.13068415	     29.96694004	     78.74327176	     51.64882700	      0.00000000	      0.00000000	     59.58246602	    -22.46515864	     51.51052240	     65.05199255	     50.69129262	      0.00000000	      0.00000000
      7.52000000	    -36.66727800	      3.89365763	      2.65726284	      0.31947809	      1.02666206	     -0.17533105	      0.00000000	      0.50000000	      0.00000000	      0.25000000	     64.36463389	     -6.31923538	      1.61812959	     51.68437717	      0.90206255	      9.58947841	    -11.35303471	      0.00000000	      0.00000000	     66.91978888	      0.34723100	      8.81046143	     83.48322058	      1.45705707	    -36.45700051	     -4.64595199	      0.00000000	      0.00000000	    -35.95385871	     -0.90979028	      1.76905958	     39.90419017	    -22.36611573	     29.36543977	     78.80564687	     51.59615617	      0.00000000	      0.00000000	     59.84776945	    -22.64810080	     52.09831956	     64.76822560	     50.71135520	      0.00000000	      0.00000000
      7.52500000	    -36.48063834	      3.59728631	      3.76424272	      0.31968227	      1.02556907	     -0.17465217	      0.00000000	      0.50000000	      0.00000000	      0.25000000	     62.11198138	     -6.50654575	      1.49436856	     48.96991718	      0.85468629	      8.25423757	    -12.77505031	      0.00000000	      0.00000000	     68.33749362	      0.99538950	      9.53826368	     85.75511606	      1.49670913	    -36.12911445	     -4.64046056	      0.00000000	      0.00000000	    -35.81694936	     -0.31700483	      1.22321026	     38.36409066	    -19.40466339	     24.77579581	     78.06376054	     51.02392280	      0.00000000	      0.00000000	     61.56613021	    -23.36334494	     55.77054856	     64.10182380	     51.04579095	      0.00000000	      0.00000000
